<?xml version="1.0" encoding="UTF-8"?>
<svg id="Layer_1" data-name="Layer 1" xmlns="http://www.w3.org/2000/svg" viewBox="0 0 500 500">
  <defs>
    <style>
      .cls-1 {
        fill: #6997ce;
      }

      .cls-1, .cls-2, .cls-3, .cls-4, .cls-5, .cls-6, .cls-7, .cls-8 {
        stroke-width: 0px;
      }

      .cls-2 {
        fill: #557fbd;
      }

      .cls-3 {
        fill: #2c395e;
      }

      .cls-4 {
        fill: #3f70b6;
      }

      .cls-5 {
        fill: #243056;
      }

      .cls-6 {
        fill: #fff;
      }

      .cls-7 {
        fill: #3c6fa1;
      }

      .cls-8 {
        fill: #1c2c50;
      }
    </style>
  </defs>
  <rect class="cls-6" width="500" height="281.24"/>
  <path class="cls-1" d="M39.14,377.07l37.36-117.42,16.89,6.2,16.36,2.63,38.31,14.4,28.37-8.42,17.86,1.38,16.04-9.91,21.7,6.12s35.32-21.73,38.4-22.05,19.28-17.17,19.28-17.17l33.9-11.1,9.75,12.32h57.1l15.8,5.42,17.3-3.42,17.22,3.91-19.45,118.64-74.39,46.19h-207.62l-119.13-20.91,19.45-3.66-.49-3.15Z"/>
  <path class="cls-2" d="M78.63,286.82l36.94,4.63,46.98,39.45s-53.96,1.13-67.63-9.08c-7.67-5.73-16.29-35.01-16.29-35.01Z"/>
  <path class="cls-2" d="M178.25,296.55l33.1-3.3,18.38,33.1s-30.25,9.08-38.5,4.02c-7.72-4.74-12.98-33.82-12.98-33.82Z"/>
  <polygon class="cls-2" points="256.48 285.15 283.9 278.43 308.83 275.33 302.74 286.63 274.33 319 232.02 323.92 244.97 289.83 256.48 285.15"/>
  <path class="cls-2" d="M372.64,282.87l39.29.98s-.41,4.95-4.22,10.57c-7.8,11.52-23.2,28.74-31.93,32.28-9.88,4-42.42-4.32-42.42-4.32l39.29-39.5Z"/>
  <path class="cls-1" d="M423.55,236.05c0,16.45-3.87,32.88-11.62,47.8-4.75,9.1-10.92,17.62-18.55,25.25l-17.57,17.6h-.03l-23.25,23.27c-19.5,19.5-45.42,30.25-72.98,30.25s-53.48-10.75-72.98-30.25c-6.03-6.03-11.15-12.6-15.35-19.6-6.4-10.55-10.7-22.02-12.98-33.82-1.37-7.3-2-14.7-1.82-22.1-11.73,1.83-23.18,2.2-33.93.5-11.02-1.75-22.02-3.95-32.75-6.47.6,7.87,2.55,15.65,5.82,22.97,3.4,7.63,8.2,14.75,14.45,21,9.05,9.05,20.27,15.4,32.53,18.45,4.27,1.07,8.67,1.75,13.15,2,9.1.5,16.1,8.3,15.57,17.43-.48,8.8-7.77,15.63-16.48,15.63-.33,0-.62-.03-.92-.05-25.37-1.4-49.25-12.08-67.25-30.08-4.38-4.37-8.3-9.07-11.7-14-7.52-10.75-12.72-22.62-15.65-34.92-2.13-8.93-3.05-18.1-2.78-27.25C32.92,246.8,0,232.25,0,232.25v267.75h500V208.57s-16.3,26.82-76.45,27.47ZM229.73,326.35c.05.08.15.18.22.25,13.25,13.25,30.88,20.55,49.6,20.55s36.35-7.3,49.58-20.55l4.23-4.23,36.62-36.65c.92-.92,1.82-1.87,2.65-2.85h.03c12.38-13.8,18.3-31.4,17.8-48.82-16.73-2.05-35.85-5.83-57.68-11.93-2.57-.72-5.65-.8-9.17-.4.03,18.6-4.9,37.17-14.77,53.6-4.25,7-9.37,13.6-15.4,19.62l-20.42,20.45c-6.45,6.45-16.93,6.45-23.38,0-6.45-6.45-6.47-16.92,0-23.37l6.85-6.88,13.55-13.57c10.9-10.9,17.47-24.55,19.67-38.75-22.88,9.75-50.98,23.72-79.38,33.1-1.45,9.08-1.1,18.35,1.02,27.32,2.85,12.12,8.98,23.63,18.38,33.1Z"/>
  <path class="cls-2" d="M229.73,326.35c-9.4-9.47-15.53-20.98-18.38-33.1,15.43-2.2,30.73-5.18,45.13-8.1l-6.85,6.88c-6.47,6.45-6.45,16.92,0,23.37,6.45,6.45,16.93,6.45,23.38,0l20.42-20.45c6.03-6.02,11.15-12.62,15.4-19.62,9.7-1.25,17.67-1.48,23.25-.05,14.7,3.75,28.21,6.2,40.56,7.6-.83.98-1.74,1.93-2.66,2.85l-36.62,36.65-4.23,4.23c-13.23,13.25-30.85,20.55-49.58,20.55s-36.35-7.3-49.6-20.55c-.07-.08-.18-.18-.22-.25Z"/>
  <path class="cls-2" d="M500,234.72v265.28H0v-221.55s34.32,3.1,79.27,8.44c2.93,12.3,8.13,24.18,15.65,34.92,3.4,4.93,7.31,9.63,11.7,14.01,18,18,41.88,28.67,67.24,30.07.3.03.6.06.93.06,8.7,0,16-6.83,16.47-15.63.53-9.13-6.47-16.93-15.57-17.43-4.47-.26-8.88-.93-13.15-2-12.24-3.06-23.47-9.4-32.52-18.45-6.26-6.24-11.06-13.37-14.45-21,8.88,1.14,17.91,2.4,26.92,3.7,11.33,1.63,23.38,1.94,35.75,1.4,2.29,11.8,6.58,23.27,12.98,33.82,4.2,7,9.33,13.58,15.35,19.6,19.5,19.51,45.39,30.25,72.97,30.25s53.48-10.74,72.97-30.25l23.25-23.27h.01l17.58-17.6c7.63-7.63,13.8-16.15,18.55-25.25,69.37-5.3,88.07-49.13,88.07-49.13Z"/>
  <path class="cls-7" d="M229.95,326.6c-.07-.08-.18-.18-.22-.25,35.37-4.92,65.6-11.45,81.92-8,7.48,1.58,14.73,2.93,21.7,4.03l-4.23,4.23c-13.23,13.25-30.85,20.55-49.58,20.55s-36.35-7.3-49.6-20.55Z"/>
  <path class="cls-7" d="M500,294.42v205.58H0v-202.08s42.53,13.72,94.92,23.9c3.4,4.93,7.33,9.62,11.7,14,18,18,41.87,28.68,67.25,30.08.3.03.6.05.92.05,8.7,0,16-6.83,16.48-15.63.52-9.13-6.48-16.93-15.57-17.43-4.48-.25-8.88-.92-13.15-2,9.6.3,19.2.08,28.67-.53,4.2,7,9.32,13.57,15.35,19.6,19.5,19.5,45.4,30.25,72.98,30.25s53.48-10.75,72.98-30.25l23.25-23.27h.03c88.57,3.52,124.2-32.28,124.2-32.28Z"/>
  <path class="cls-8" d="M191.28,350.33c-.48,8.8-7.77,15.63-16.48,15.63-.33,0-.62-.03-.92-.05-25.37-1.4-49.25-12.08-67.25-30.08-4.38-4.37-8.3-9.07-11.7-14,15.28,2.98,31.43,5.65,47.58,7.6,6.65.8,13.35,1.28,20.05,1.48,4.27,1.07,8.67,1.75,13.15,2,9.1.5,16.1,8.3,15.57,17.43Z"/>
  <path class="cls-3" d="M323.6,221.73c.03,18.6-4.9,37.17-14.77,53.6-14.33,1.8-32.48,5.77-52.35,9.82l13.55-13.57c10.9-10.9,17.47-24.55,19.67-38.75,13.42-5.75,25.07-10.05,33.9-11.1Z"/>
  <path class="cls-3" d="M115.57,291.45c-12.53-1.67-24.77-3.17-36.3-4.55-2.13-8.93-3.05-18.1-2.78-27.25,10.55,3.12,21.75,6.15,33.25,8.83.6,7.87,2.55,15.65,5.82,22.97Z"/>
  <path class="cls-4" d="M289.7,228.15c3.33-21.38-3.22-44.05-19.67-60.5-13.23-13.25-30.85-20.55-49.58-20.55s-36.32,7.3-49.58,20.55l-40.85,40.87c-15.1,15.12-21.88,35.48-20.27,55.28-11.5-2.68-22.7-5.7-33.25-8.83.77-25.35,10.8-50.5,30.13-69.82l40.85-40.88c19.5-19.5,45.42-30.25,72.98-30.25s53.48,10.75,72.98,30.25c20.08,20.08,30.12,46.4,30.18,72.78-8.83,1.05-20.48,5.35-33.9,11.1Z"/>
  <path class="cls-3" d="M211.35,293.25c-11.07,1.6-22.2,2.8-33.1,3.3-1.37-7.3-2-14.7-1.82-22.1,11.13-1.73,22.55-4.75,33.9-8.52-1.45,9.08-1.1,18.35,1.02,27.32Z"/>
  <path class="cls-4" d="M250.4,202.06l-20.45,20.45c-10.85,10.85-17.4,24.42-19.62,38.57-11.35,3.78-22.77,6.8-33.9,8.52.62-25.57,10.68-51,30.15-70.48l20.42-20.45c6.45-6.45,16.93-6.45,23.38,0,6.47,6.45,6.47,16.93.02,23.38Z"/>
  <path class="cls-8" d="M375.77,326.7l-23.25,23.27c-19.5,19.5-45.42,30.25-72.98,30.25s-53.48-10.75-72.98-30.25c-6.03-6.03-11.15-12.6-15.35-19.6,13.23-.8,26.18-2.32,38.5-4.02.05.08.15.18.22.25,13.25,13.25,30.88,20.55,49.6,20.55s36.35-7.3,49.58-20.55l4.23-4.23c15.32,2.45,29.42,3.82,42.42,4.32Z"/>
  <path class="cls-3" d="M423.55,236.05c0,16.45-3.87,32.88-11.62,47.8-11.6.9-24.63.7-39.28-.98,12.38-13.8,18.3-31.4,17.8-48.82,12.28,1.55,23.27,2.12,33.1,2Z"/>
  <path class="cls-4" d="M423.55,231.37c-9.82.12-20.82-.45-33.1-2-.48-17.28-7.32-34.43-20.48-47.58-12.23-12.22-28.42-19.5-45.68-20.45-9.1-.5-16.1-8.3-15.57-17.42.5-9.13,8.33-16.1,17.4-15.58,25.37,1.4,49.25,12.08,67.25,30.08,20.1,20.1,30.15,46.52,30.18,72.95Z"/>
  <g id="Layer_2" data-name="Layer 2">
    <path class="cls-5" d="M162.55,330.9c-6.7-.2-13.4-.68-20.05-1.48-16.15-1.95-32.3-4.62-47.58-7.6-7.52-10.75-12.72-22.62-15.65-34.92,11.52,1.37,23.77,2.87,36.3,4.55,3.4,7.63,8.2,14.75,14.45,21,9.05,9.05,20.27,15.4,32.53,18.45Z"/>
    <path class="cls-5" d="M308.83,275.33c-4.25,7-9.37,13.6-15.4,19.62l-20.42,20.45c-6.45,6.45-16.93,6.45-23.38,0-6.45-6.45-6.47-16.92,0-23.37l6.85-6.88c19.87-4.05,38.02-8.03,52.35-9.82Z"/>
    <path class="cls-5" d="M229.73,326.35c-12.32,1.7-25.27,3.22-38.5,4.02-6.4-10.55-10.7-22.02-12.98-33.82,10.9-.5,22.02-1.7,33.1-3.3,2.85,12.12,8.98,23.63,18.38,33.1Z"/>
    <path class="cls-5" d="M411.93,283.85c-4.75,9.1-10.92,17.62-18.55,25.25l-17.57,17.6h-.03c-13-.5-27.1-1.87-42.42-4.32l36.62-36.65c.92-.92,1.82-1.87,2.65-2.85h.03c14.65,1.68,27.68,1.88,39.28.98Z"/>
  </g>
</svg>