<?xml version="1.0" encoding="UTF-8"?>
<svg id="Layer_1" data-name="Layer 1" xmlns="http://www.w3.org/2000/svg" viewBox="0 0 1532.56 142.81">
  <defs>
    <style>
      .cls-1 {
        fill: none;
        stroke: #fff;
        stroke-miterlimit: 10;
        stroke-width: 80px;
      }
    </style>
  </defs>
  <g id="Layer_2" data-name="Layer 2">
    <path class="cls-1" d="M1517.02,59.87c-71.89,30.3-136.29,54.59-215.08,31.22-34.48-9.98-67.91-23.39-103.48-28.28-32.27-4.99-66.02-2.92-98.29-5.17-36.12-2.47-68.13-10.49-103.63-6.71-21.56,1.92-39.71,5.66-62.68,7.16-25.47,1.94-52.3,1.06-77.99,3.23-15.76,1.32-31.42,3.88-46.83,7.65-34.94,8.24-68.63,23.65-104.27,29.8-16.04,2.78-32.33,3.93-48.59,3.1-34.65-1.27-67.01-13.33-99.69-21.34-23.6-5.49-46.69-6.31-70.49-1.58-26.69,5.21-52.18,15.51-79.45,20.15-34.82,6.63-70.51,4.15-104.43-5.6-40.44-11.98-79.96-27.64-122.28-30.49-37.36-3.31-77.56.64-113.74-7.84-17.3-4.14-33.29-11.53-49.09-18.96"/>
  </g>
</svg>