<svg viewBox="0 0 20 20" fill="none" xmlns="http://www.w3.org/2000/svg">
    <path d="M12.6534 16.8657C12.1451 16.8657 11.7334 17.2774 11.7334 17.7857V19.0816V19.1074C11.7334 19.6157 12.1451 20.0274 12.6534 20.0274C13.1617 20.0274 13.5734 19.6157 13.5734 19.1074C13.5734 19.0982 13.5734 19.0891 13.5734 19.0799V19.0816V17.7857C13.5734 17.2782 13.1617 16.8657 12.6542 16.8657H12.6534Z" fill="currentColor"/>
    <path d="M19.0817 11.7333H17.7859C17.2892 11.7474 16.8917 12.1541 16.8917 12.6533C16.8917 13.1524 17.2892 13.5583 17.7851 13.5733H17.7867H19.0826C19.5792 13.5591 19.9767 13.1524 19.9767 12.6533C19.9767 12.1541 19.5792 11.7483 19.0834 11.7333H19.0817Z" fill="currentColor"/>
    <path d="M16.9325 15.6316C16.7692 15.4816 16.5509 15.3899 16.3109 15.3899C15.8025 15.3899 15.3909 15.8016 15.3909 16.3099C15.3909 16.5499 15.4825 16.7682 15.6334 16.9324L15.6325 16.9316L16.5484 17.8474C16.7175 18.0307 16.9584 18.1457 17.2267 18.1457C17.735 18.1457 18.1467 17.7341 18.1467 17.2257C18.1467 16.9574 18.0317 16.7166 17.8492 16.5482L17.8484 16.5474L16.9325 15.6316Z" fill="currentColor"/>
    <path d="M7.34749 3.13492C7.85582 3.13492 8.26749 2.72326 8.26749 2.21492V0.919923C8.25332 0.423257 7.84666 0.0257568 7.34749 0.0257568C6.84832 0.0257568 6.44249 0.423257 6.42749 0.91909V0.920757V2.21576C6.42749 2.72326 6.83916 3.13576 7.34666 3.13576L7.34749 3.13492Z" fill="currentColor"/>
    <path d="M2.21505 8.26664H2.24088C2.74921 8.26664 3.16088 7.85497 3.16088 7.34664C3.16088 6.8383 2.74921 6.42664 2.24088 6.42664C2.23171 6.42664 2.22255 6.42664 2.21338 6.42664H2.21505H0.920045C0.423379 6.4408 0.0258789 6.84747 0.0258789 7.34664C0.0258789 7.8458 0.423379 8.25164 0.919212 8.26664H0.920879H2.21505Z" fill="currentColor"/>
    <path d="M3.06841 4.36915C3.23758 4.55248 3.47841 4.66748 3.74675 4.66748C4.25508 4.66748 4.66675 4.25581 4.66675 3.74748C4.66675 3.47915 4.55175 3.23831 4.36925 3.06998L4.36841 3.06915L3.45258 2.15331C3.28341 1.96998 3.04258 1.85498 2.77425 1.85498C2.26591 1.85498 1.85425 2.26665 1.85425 2.77498C1.85425 3.04331 1.96925 3.28415 2.15175 3.45248L2.15258 3.45331L3.06841 4.36915Z" fill="currentColor"/>
    <path d="M11.9518 14.5532C12.1018 14.3899 12.1934 14.1716 12.1934 13.9316C12.1934 13.4232 11.7818 13.0116 11.2734 13.0116C11.0334 13.0116 10.8151 13.1032 10.6509 13.254L10.6518 13.2532L8.05177 15.8532C7.56094 16.3099 6.90011 16.5907 6.17427 16.5907C4.65011 16.5907 3.41427 15.3549 3.41427 13.8307C3.41427 13.1049 3.69511 12.444 4.15344 11.9516L4.15177 11.9532L6.75177 9.35322C6.93511 9.18405 7.05011 8.94322 7.05011 8.67488C7.05011 8.16655 6.63844 7.75488 6.13011 7.75488C5.86177 7.75488 5.62094 7.86988 5.45261 8.05238L5.45177 8.05322L2.85177 10.6532C2.01927 11.4857 1.50427 12.6357 1.50427 13.9057C1.50427 16.4449 3.56261 18.504 6.10177 18.5049H6.11261C7.37844 18.5049 8.52427 17.9899 9.35177 17.1582L11.9518 14.5532Z" fill="currentColor"/>
    <path d="M17.1542 2.84325C16.3267 2.01158 15.1809 1.49658 13.915 1.49658C13.9117 1.49658 13.9075 1.49658 13.9042 1.49658H13.905C13.9017 1.49658 13.8984 1.49658 13.8942 1.49658C12.6284 1.49658 11.4825 2.01158 10.655 2.84325L8.05505 5.44325C7.87171 5.61242 7.75671 5.85325 7.75671 6.12158C7.75671 6.62992 8.16838 7.04158 8.67671 7.04158C8.94505 7.04158 9.18588 6.92658 9.35421 6.74408L9.35505 6.74325L11.955 4.14325C12.46 3.59992 13.1792 3.26158 13.9775 3.26158C15.5017 3.26158 16.7375 4.49742 16.7375 6.02158C16.7375 6.81992 16.3992 7.53825 15.8575 8.04242L15.8559 8.04408L13.2559 10.6441C13.0725 10.8132 12.9575 11.0541 12.9575 11.3224C12.9575 11.8307 13.3692 12.2424 13.8775 12.2424C14.1459 12.2424 14.3867 12.1274 14.555 11.9449L14.5559 11.9441L17.1559 9.34408C17.9859 8.51158 18.4984 7.36242 18.4984 6.09408C18.4984 4.82575 17.985 3.67658 17.155 2.84408L17.1542 2.84325Z" fill="currentColor"/>
</svg>
