<svg viewBox="0 0 35 35" fill="none" xmlns="http://www.w3.org/2000/svg">
    <path d="M17.0027 5.67227L13.6688 5.67331C9.89753 5.67448 8.01191 5.67506 6.8407 6.847C5.66949 8.01894 5.67007 9.90455 5.67124 13.6758L5.67518 26.3437C5.67547 27.2865 5.67561 27.7579 5.9686 28.0507C6.26158 28.3435 6.73299 28.3434 7.6758 28.3431L20.3437 28.3391C24.1149 28.338 26.0006 28.3374 27.1718 27.1655C28.343 25.9935 28.3424 24.1079 28.3412 20.3367L28.3402 17.0027" stroke="currentColor" stroke-width="2.5"/>
    <path d="M12.7551 14.1741L21.2555 14.1714" stroke="currentColor" stroke-width="2.5" stroke-linecap="round" stroke-linejoin="round"/>
    <path d="M12.7568 19.841L17.0071 19.8397" stroke="currentColor" stroke-width="2.5" stroke-linecap="round" stroke-linejoin="round"/>
    <path d="M26.9216 11.3362L26.919 2.83571M22.6701 7.08726L31.1705 7.08462" stroke="currentColor" stroke-width="2.5" stroke-linecap="round" stroke-linejoin="round"/>
</svg>
