<svg viewBox="0 0 28 28" fill="none" xmlns="http://www.w3.org/2000/svg">
    <path d="M25.6666 7.29168V13.2417C25.6666 14.7233 25.1766 15.9717 24.3016 16.835C23.4383 17.71 22.19 18.2 20.7083 18.2V20.3116C20.7083 21.105 19.8216 21.5833 19.1683 21.14L18.0367 20.3933C18.1417 20.0317 18.1883 19.635 18.1883 19.215V14.4667C18.1883 12.0867 16.6016 10.5 14.2216 10.5H6.29997C6.13664 10.5 5.98498 10.5117 5.83331 10.5234V7.29168C5.83331 4.31668 7.81665 2.33335 10.7916 2.33335H20.7083C23.6833 2.33335 25.6666 4.31668 25.6666 7.29168Z" stroke="currentColor" stroke-width="2.5" stroke-miterlimit="10" stroke-linecap="round" stroke-linejoin="round"/>
    <path d="M18.1883 14.4667V19.215C18.1883 19.635 18.1417 20.0317 18.0367 20.3933C17.605 22.1083 16.1816 23.1817 14.2216 23.1817H11.0483L7.52498 25.5267C6.99998 25.8884 6.29997 25.5034 6.29997 24.8734V23.1817C5.10997 23.1817 4.11832 22.785 3.42998 22.0967C2.72998 21.3967 2.33331 20.405 2.33331 19.215V14.4667C2.33331 12.25 3.70998 10.7217 5.83331 10.5234C5.98498 10.5117 6.13664 10.5 6.29997 10.5H14.2216C16.6016 10.5 18.1883 12.0867 18.1883 14.4667Z" stroke="currentColor" stroke-width="2.5" stroke-miterlimit="10" stroke-linecap="round" stroke-linejoin="round"/>
</svg>
