<svg viewBox="0 0 16 16" fill="none" xmlns="http://www.w3.org/2000/svg">
    <path d="M11.1349 12.6544H4.8702C4.59029 12.6544 4.27705 12.4345 4.18375 12.1679L1.42461 4.45028C1.03139 3.34395 1.49125 3.00406 2.43762 3.68385L5.03682 5.54327C5.47002 5.84318 5.9632 5.68989 6.14981 5.20338L7.32278 2.07768C7.69599 1.07799 8.3158 1.07799 8.68902 2.07768L9.86199 5.20338C10.0486 5.68989 10.5418 5.84318 10.9683 5.54327L13.4076 3.80381C14.4472 3.05737 14.9471 3.43726 14.5205 4.64355L11.828 12.1812C11.7281 12.4345 11.4148 12.6544 11.1349 12.6544Z" stroke="currentColor" stroke-width="1.5" stroke-linecap="round" stroke-linejoin="round"/>
    <path d="M4.33704 14.6671H11.6681" stroke="currentColor" stroke-width="1.5" stroke-linecap="round" stroke-linejoin="round"/>
    <path d="M6.33643 9.33542H9.66873" stroke="currentColor" stroke-width="1.5" stroke-linecap="round" stroke-linejoin="round"/>
</svg>
