<svg viewBox="0 0 28 28" fill="none" xmlns="http://www.w3.org/2000/svg">
    <path d="M14 14C17.2217 14 19.8334 11.3884 19.8334 8.1667C19.8334 4.94504 17.2217 2.33337 14 2.33337C10.7784 2.33337 8.16669 4.94504 8.16669 8.1667C8.16669 11.3884 10.7784 14 14 14Z" stroke="currentColor" stroke-width="2.5" stroke-linecap="round" stroke-linejoin="round"/>
    <path d="M3.97827 25.6667C3.97827 21.1517 8.46997 17.5 14 17.5" stroke="currentColor" stroke-width="2.5" stroke-linecap="round" stroke-linejoin="round"/>
    <path d="M21.2333 24.9667C23.2952 24.9667 24.9667 23.2952 24.9667 21.2334C24.9667 19.1715 23.2952 17.5 21.2333 17.5C19.1715 17.5 17.5 19.1715 17.5 21.2334C17.5 23.2952 19.1715 24.9667 21.2333 24.9667Z" stroke="currentColor" stroke-width="2.5" stroke-linecap="round" stroke-linejoin="round"/>
    <path d="M25.6667 25.6667L24.5 24.5" stroke="currentColor" stroke-width="2.5" stroke-linecap="round" stroke-linejoin="round"/>
</svg>
