<svg viewBox="0 0 34 34" fill="none" xmlns="http://www.w3.org/2000/svg">
    <rect transform="translate(0.0161133 0.0161285)"/>
    <circle stroke="currentColor" cx="17.0161" cy="11.3495" r="4.66667" stroke-width="2" stroke-linecap="round"/>
    <path stroke="currentColor" d="M22.9039 11.1411C23.3349 10.3947 24.0448 9.84996 24.8773 9.62687C25.7099 9.40378 26.597 9.52057 27.3435 9.95155C28.09 10.3825 28.6347 11.0924 28.8578 11.925C29.0809 12.7575 28.9641 13.6447 28.5331 14.3911C28.1021 15.1376 27.3923 15.6823 26.5597 15.9054C25.7271 16.1285 24.84 16.0117 24.0935 15.5807C23.347 15.1497 22.8023 14.4399 22.5792 13.6073C22.3562 12.7747 22.4729 11.8876 22.9039 11.1411L22.9039 11.1411Z" stroke-width="2"/>
    <path stroke="currentColor" d="M5.49914 11.1411C5.93011 10.3947 6.63998 9.84996 7.47256 9.62687C8.30514 9.40378 9.19225 9.52057 9.93872 9.95155C10.6852 10.3825 11.2299 11.0924 11.453 11.925C11.6761 12.7575 11.5593 13.6447 11.1283 14.3911C10.6973 15.1376 9.98747 15.6823 9.15488 15.9054C8.3223 16.1285 7.43519 16.0117 6.68872 15.5807C5.94225 15.1497 5.39755 14.4399 5.17446 13.6073C4.95137 12.7747 5.06816 11.8876 5.49914 11.1411L5.49914 11.1411Z" stroke-width="2"/>
    <path fill="currentColor" d="M25.5508 25.5161L24.5705 25.7136L24.7321 26.5161H25.5508V25.5161ZM31.135 24.4127L30.1766 24.6979L30.1766 24.6979L31.135 24.4127ZM22.5746 20.8561L21.9698 20.0597L20.8132 20.9382L22.0465 21.7052L22.5746 20.8561ZM30.2524 24.5161H25.5508V26.5161H30.2524V24.5161ZM30.1766 24.6979C30.1723 24.6835 30.1686 24.655 30.1759 24.6205C30.1828 24.588 30.1967 24.5632 30.21 24.547C30.2359 24.5153 30.258 24.5161 30.2524 24.5161V26.5161C31.4197 26.5161 32.4842 25.4407 32.0935 24.1275L30.1766 24.6979ZM25.7185 20.8495C27.1825 20.8495 28.1545 21.4342 28.8358 22.1849C29.5434 22.9646 29.953 23.9465 30.1766 24.6979L32.0935 24.1275C31.8265 23.2302 31.3059 21.9306 30.3168 20.8408C29.3015 19.7221 27.8104 18.8495 25.7185 18.8495V20.8495ZM23.1795 21.6524C23.7955 21.1845 24.6088 20.8495 25.7185 20.8495V18.8495C24.165 18.8495 22.9281 19.3318 21.9698 20.0597L23.1795 21.6524ZM22.0465 21.7052C23.6622 22.7101 24.3145 24.4429 24.5705 25.7136L26.5311 25.3187C26.2314 23.8308 25.4078 21.4405 23.1028 20.0069L22.0465 21.7052Z"/>
    <path fill="currentColor" d="M11.4576 20.856L11.9857 21.7052L13.219 20.9382L12.0624 20.0597L11.4576 20.856ZM2.89717 24.4127L3.85564 24.6979H3.85564L2.89717 24.4127ZM8.48139 25.5161V26.5161H9.30007L9.46171 25.7136L8.48139 25.5161ZM8.31375 20.8495C9.42341 20.8495 10.2367 21.1845 10.8527 21.6524L12.0624 20.0597C11.1041 19.3318 9.86728 18.8495 8.31375 18.8495V20.8495ZM3.85564 24.6979C4.07919 23.9465 4.48879 22.9646 5.19641 22.1849C5.87776 21.4342 6.8497 20.8495 8.31375 20.8495V18.8495C6.2218 18.8495 4.73072 19.7221 3.71541 20.8408C2.72636 21.9306 2.20567 23.2302 1.93869 24.1275L3.85564 24.6979ZM3.77984 24.5161C3.77419 24.5161 3.7963 24.5153 3.82224 24.547C3.83551 24.5632 3.84939 24.588 3.8563 24.6205C3.86364 24.655 3.85993 24.6835 3.85564 24.6979L1.93869 24.1275C1.54798 25.4407 2.61249 26.5161 3.77984 26.5161V24.5161ZM8.48139 24.5161H3.77984V26.5161H8.48139V24.5161ZM9.46171 25.7136C9.71763 24.4429 10.3699 22.7101 11.9857 21.7052L10.9294 20.0069C8.62436 21.4405 7.80074 23.8308 7.50108 25.3187L9.46171 25.7136Z" />
    <path stroke="currentColor" d="M17.0161 19.8495C22.4326 19.8495 23.7072 23.9913 24.0072 25.9407C24.0912 26.4865 23.6518 26.9328 23.0995 26.9328H10.9328C10.3805 26.9328 9.94111 26.4865 10.0251 25.9407C10.325 23.9913 11.5996 19.8495 17.0161 19.8495Z" stroke-width="2" stroke-linecap="round"/>
</svg>
