<svg viewBox="0 0 28 28" fill="none" xmlns="http://www.w3.org/2000/svg">
    <path d="M10.6867 12.6816C10.57 12.67 10.43 12.67 10.3017 12.6816C7.52501 12.5883 5.32001 10.3133 5.32001 7.5133C5.32001 4.65496 7.63001 2.3333 10.5 2.3333C13.3583 2.3333 15.68 4.65496 15.68 7.5133C15.6683 10.3133 13.4633 12.5883 10.6867 12.6816Z" stroke="currentColor" stroke-width="2.5" stroke-linecap="round" stroke-linejoin="round"/>
    <path d="M19.145 4.66664C21.4083 4.66664 23.2283 6.49831 23.2283 8.74997C23.2283 10.955 21.4783 12.7516 19.2967 12.8333C19.2033 12.8216 19.0983 12.8216 18.9933 12.8333" stroke="currentColor" stroke-width="2.5" stroke-linecap="round" stroke-linejoin="round"/>
    <path d="M4.85334 16.9866C2.03001 18.8766 2.03001 21.9566 4.85334 23.835C8.06167 25.9816 13.3233 25.9816 16.5317 23.835C19.355 21.945 19.355 18.865 16.5317 16.9866C13.335 14.8516 8.07334 14.8516 4.85334 16.9866Z" stroke="currentColor" stroke-width="2.5" stroke-linecap="round" stroke-linejoin="round"/>
    <path d="M21.3967 23.3333C22.2367 23.1583 23.03 22.82 23.6833 22.3183C25.5033 20.9533 25.5033 18.7016 23.6833 17.3366C23.0417 16.8466 22.26 16.52 21.4317 16.3333" stroke="currentColor" stroke-width="2.5" stroke-linecap="round" stroke-linejoin="round"/>
</svg>
