<svg viewBox="0 0 24 24" fill="none" stroke="currentColor" xmlns="http://www.w3.org/2000/svg">
    <path d="M4.00405 13.0062C4.00346 11.1206 4.00317 10.1778 4.58878 9.59183C5.17438 9.00586 6.11719 9.00557 8.00281 9.00498L16.0028 9.0025C17.8884 9.00192 18.8312 9.00162 19.4172 9.58723C20.0032 10.1728 20.0035 11.1156 20.004 13.0013L20.0047 15.0013C20.0055 17.8297 20.006 19.2439 19.1276 20.1229C18.2492 21.0018 16.835 21.0022 14.0065 21.0031L10.0065 21.0044C7.1781 21.0052 5.76389 21.0057 4.88494 20.1273C4.00599 19.2489 4.00555 17.8347 4.00467 15.0062L4.00405 13.0062Z" stroke-width="2"/>
    <path d="M16.0025 8.00252L16.0022 7.00252C16.0015 4.79338 14.2101 3.00308 12.001 3.00376V3.00376C9.79184 3.00445 8.00153 4.79587 8.00222 7.005L8.00253 8.005" stroke-width="2" stroke-linecap="round"/>
</svg>
