<svg viewBox="0 0 24 25" fill="none" xmlns="http://www.w3.org/2000/svg">
    <path d="M12.0037 20.5121L7.00367 20.5105C4.00367 20.5096 2.00413 19.009 2.00522 15.509L2.00739 8.50897C2.00848 5.00897 4.00894 3.50959 7.00894 3.51052L17.0089 3.51363C20.0089 3.51456 22.0085 5.01518 22.0074 8.51518L22.0065 11.5152" stroke="currentColor" stroke-width="1.5" stroke-miterlimit="10" stroke-linecap="round" stroke-linejoin="round"/>
    <path d="M17.0072 9.01363L13.8765 11.5127C12.8462 12.3323 11.1562 12.3318 10.1265 11.5115L7.00723 9.01053" stroke="currentColor" stroke-width="1.5" stroke-miterlimit="10" stroke-linecap="round" stroke-linejoin="round"/>
    <path d="M19.2154 14.7843L15.6744 18.3232C15.5343 18.4632 15.4042 18.7231 15.3742 18.9131L15.1837 20.2631C15.1136 20.7531 15.4535 21.0932 15.9435 21.0233L17.2936 20.8337C17.4836 20.8038 17.7536 20.6739 17.8837 20.5339L21.4248 16.995C22.035 16.3852 22.3252 15.6753 21.4255 14.775C20.5357 13.8847 19.8256 14.1745 19.2154 14.7843Z" stroke="currentColor" stroke-width="1.5" stroke-miterlimit="10" stroke-linecap="round" stroke-linejoin="round"/>
    <path d="M18.7053 15.2942C19.005 16.3743 19.8447 17.2145 20.9246 17.5148" stroke="currentColor" stroke-width="1.5" stroke-miterlimit="10" stroke-linecap="round" stroke-linejoin="round"/>
</svg>
