<svg stroke="currentColor" viewBox="0 0 24 24" fill="none" xmlns="http://www.w3.org/2000/svg">
    <path d="M14.6359 3.90949C15.2889 3.47412 15.6155 3.25643 15.9712 3.29166C16.327 3.32689 16.6045 3.60439 17.1595 4.15938L19.8407 6.84062C20.3957 7.39561 20.6732 7.67311 20.7085 8.02888C20.7437 8.38465 20.526 8.71118 20.0906 9.36424L18.442 11.8372C17.8801 12.68 17.5992 13.1013 17.375 13.5511C17.2087 13.8845 17.066 14.2292 16.9478 14.5825C16.7883 15.0591 16.689 15.5557 16.4904 16.5489L16.2994 17.5038C16.2987 17.5072 16.2983 17.5089 16.2981 17.5101C16.1557 18.213 15.3415 18.5419 14.7509 18.1351C14.7498 18.1344 14.7484 18.1334 14.7456 18.1315V18.1315C14.7323 18.1223 14.7256 18.1177 14.719 18.1131C11.2693 15.7225 8.27766 12.7308 5.88703 9.28108C5.88245 9.27448 5.87784 9.26782 5.86863 9.25451V9.25451C5.86668 9.25169 5.8657 9.25028 5.86498 9.24924C5.45827 8.65858 5.78716 7.84444 6.49002 7.70202C6.49126 7.70177 6.49294 7.70144 6.4963 7.70076L7.45126 7.50977C8.44445 7.31113 8.94104 7.21182 9.41762 7.05236C9.77096 6.93415 10.1156 6.79139 10.449 6.62514C10.8988 6.40089 11.3202 6.11998 12.1629 5.55815L14.6359 3.90949Z" stroke-width="2"/>
    <path d="M5.00012 19L9.50012 14.5" stroke-width="2" stroke-linecap="round"/>
</svg>
