<svg viewBox="0 0 33 33" stroke="currentColor" fill="none" xmlns="http://www.w3.org/2000/svg">
    <path d="M3.76449 17.9605C3.23578 17.0101 2.97142 16.5349 2.97142 16.016C2.97142 15.4972 3.23578 15.022 3.76449 14.0715L5.92405 10.1894L8.20632 6.37805C8.76507 5.44495 9.04445 4.9784 9.49378 4.71898C9.94311 4.45956 10.4868 4.45088 11.5743 4.43354L16.0161 4.3627L20.458 4.43354C21.5454 4.45088 22.0892 4.45956 22.5385 4.71898C22.9878 4.9784 23.2672 5.44495 23.8259 6.37804L26.1082 10.1894L28.2678 14.0715C28.7965 15.022 29.0608 15.4972 29.0608 16.016C29.0608 16.5349 28.7965 17.0101 28.2678 17.9605L26.1082 21.8427L23.8259 25.654C23.2672 26.5871 22.9878 27.0537 22.5385 27.3131C22.0892 27.5725 21.5454 27.5812 20.458 27.5985L16.0161 27.6694L11.5743 27.5985C10.4868 27.5812 9.94311 27.5725 9.49378 27.3131C9.04445 27.0537 8.76507 26.5871 8.20632 25.654L5.92405 21.8427L3.76449 17.9605Z" stroke-width="3"/>
    <circle cx="16.0161" cy="16.0161" r="4"  stroke-width="3"/>
</svg>
