<svg viewBox="0 0 28 28" fill="none" xmlns="http://www.w3.org/2000/svg">
    <path d="M3.5 10.6283V17.36C3.5 19.8333 3.5 19.8333 5.83333 21.4083L12.25 25.1183C13.2183 25.6783 14.7933 25.6783 15.75 25.1183L22.1667 21.4083C24.5 19.8333 24.5 19.8333 24.5 17.3716V10.6283C24.5 8.16664 24.5 8.16664 22.1667 6.59164L15.75 2.88164C14.7933 2.32164 13.2183 2.32164 12.25 2.88164L5.83333 6.59164C3.5 8.16664 3.5 8.16664 3.5 10.6283Z" stroke="currentColor" stroke-width="2.5" stroke-linecap="round" stroke-linejoin="round"/>
    <path d="M14 17.5C15.933 17.5 17.5 15.933 17.5 14C17.5 12.067 15.933 10.5 14 10.5C12.067 10.5 10.5 12.067 10.5 14C10.5 15.933 12.067 17.5 14 17.5Z" stroke="currentColor" stroke-width="2.5" stroke-linecap="round" stroke-linejoin="round"/>
</svg>
