<svg viewBox="0 0 26 26" fill="none" xmlns="http://www.w3.org/2000/svg">
    <path d="M8.83329 20.2613C10.1051 20.9956 11.5477 21.3821 13.0163 21.3821C14.4848 21.3821 15.9274 20.9956 17.1992 20.2613C18.471 19.527 19.5271 18.4709 20.2614 17.1992C20.9956 15.9274 21.3822 14.4847 21.3822 13.0162C21.3822 11.5477 20.9956 10.105 20.2614 8.83321C19.5271 7.56143 18.471 6.50533 17.1992 5.77106C15.9274 5.0368 14.4848 4.65024 13.0163 4.65024C11.5477 4.65024 10.1051 5.0368 8.83329 5.77106" stroke="currentColor"/>
    <path d="M2.55872 13.0162L2.16828 12.7038L1.9184 13.0162L2.16828 13.3285L2.55872 13.0162ZM11.9704 13.5162C12.2465 13.5162 12.4704 13.2923 12.4704 13.0162C12.4704 12.74 12.2465 12.5162 11.9704 12.5162V13.5162ZM6.35125 7.47513L2.16828 12.7038L2.94915 13.3285L7.13212 8.09982L6.35125 7.47513ZM2.16828 13.3285L6.35125 18.5573L7.13212 17.9326L2.94915 12.7038L2.16828 13.3285ZM2.55872 13.5162H11.9704V12.5162H2.55872V13.5162Z" fill="currentColor"/>
</svg>
