<svg viewBox="0 0 22 23" fill="none" xmlns="http://www.w3.org/2000/svg">
    <path d="M8.40392 10.1212C8.31226 10.1121 8.20226 10.1121 8.10142 10.1212C5.91976 10.0479 4.18726 8.26039 4.18726 6.06039C4.18726 3.81455 6.00226 1.99039 8.25726 1.99039C10.5031 1.99039 12.3273 3.81455 12.3273 6.06039C12.3181 8.26039 10.5856 10.0479 8.40392 10.1212Z" stroke="currentColor" stroke-width="1.5" stroke-linecap="round" stroke-linejoin="round"/>
    <path d="M15.0497 3.8237C16.828 3.8237 18.258 5.26287 18.258 7.03203C18.258 8.76453 16.883 10.1762 15.1689 10.2404C15.0955 10.2312 15.013 10.2312 14.9305 10.2404" stroke="currentColor" stroke-width="1.5" stroke-linecap="round" stroke-linejoin="round"/>
    <path d="M3.82049 13.5037C1.60215 14.9887 1.60215 17.4087 3.82049 18.8845C6.34132 20.5712 10.4755 20.5712 12.9963 18.8845C15.2147 17.3995 15.2147 14.9795 12.9963 13.5037C10.4847 11.8262 6.35049 11.8262 3.82049 13.5037Z" stroke="currentColor" stroke-width="1.5" stroke-linecap="round" stroke-linejoin="round"/>
    <path d="M16.8188 18.4904C17.4788 18.3529 18.1022 18.0871 18.6155 17.6929C20.0455 16.6204 20.0455 14.8512 18.6155 13.7787C18.1113 13.3937 17.4972 13.1371 16.8463 12.9904" stroke="currentColor" stroke-width="1.5" stroke-linecap="round" stroke-linejoin="round"/>
</svg>
