<svg stroke="currentColor" viewBox="0 0 21 21" fill="none" xmlns="http://www.w3.org/2000/svg">
    <circle cx="10.4996" cy="7.00006" r="3.5" stroke-width="2" stroke-linecap="round"/>
    <path fill-rule="evenodd" clip-rule="evenodd" d="M11.0193 13.0131C10.8466 13.0044 10.6733 13.0001 10.4997 13.0001C8.80032 13.0001 7.1276 13.4194 5.73955 14.2182C4.35207 15.0167 3.28984 16.1739 2.79648 17.5548C2.61067 18.0749 2.88166 18.6472 3.40175 18.833C3.92184 19.0188 4.49408 18.7478 4.67989 18.2277C4.98418 17.376 5.67959 16.5603 6.73713 15.9517C7.48943 15.5187 8.37653 15.22 9.32392 15.0838C9.5339 14.1579 10.1721 13.3946 11.0193 13.0131Z" fill="currentColor"/>
    <path d="M15.7496 12.2501L15.7496 19.2501" stroke-width="2.5" stroke-linecap="round"/>
    <path d="M19.2496 15.7501L12.2496 15.7501" stroke-width="2.5" stroke-linecap="round"/>
</svg>
