<svg viewBox="0 0 21 21" fill="none" xmlns="http://www.w3.org/2000/svg">
    <path d="M17.5 7L18.2071 7.70711L18.9142 7L18.2071 6.29289L17.5 7ZM13.125 17.625C13.6773 17.625 14.125 17.1773 14.125 16.625C14.125 16.0727 13.6773 15.625 13.125 15.625L13.125 17.625ZM13.8321 12.0821L18.2071 7.70711L16.7929 6.29289L12.4179 10.6679L13.8321 12.0821ZM18.2071 6.29289L13.8321 1.91789L12.4179 3.33211L16.7929 7.70711L18.2071 6.29289ZM17.5 6L8.31253 6L8.31253 8L17.5 8L17.5 6ZM8.31253 17.625L13.125 17.625L13.125 15.625L8.31253 15.625L8.31253 17.625ZM2.50003 11.8125C2.50003 15.0227 5.10238 17.625 8.31253 17.625L8.31253 15.625C6.20694 15.625 4.50003 13.9181 4.50003 11.8125L2.50003 11.8125ZM8.31253 6C5.10238 6 2.50003 8.60234 2.50003 11.8125L4.50003 11.8125C4.50003 9.70691 6.20695 8 8.31253 8L8.31253 6Z" fill="currentColor"/>
</svg>
