<?xml version="1.0" encoding="UTF-8"?>
<svg id="Layer_1" data-name="Layer 1" xmlns="http://www.w3.org/2000/svg" viewBox="0 0 1503.08 291.43">
  <defs>
    <style>
      .cls-1 {
        fill: #3c6fa1;
        stroke-width: 0px;
      }
    </style>
  </defs>
  <path class="cls-1" d="M1003.08,86.71s42.53,13.7,94.92,23.9c15.28,2.98,31.43,5.65,47.58,7.6,6.65.8,13.35,1.27,20.05,1.48,9.6.3,19.2.05,28.67-.53,13.23-.8,26.18-2.32,38.5-4.02.05.08.15.18.22.25-.07-.08-.18-.18-.22-.25,35.37-4.92,65.6-11.45,81.92-8,7.48,1.58,14.73,2.93,21.7,4.03,15.32,2.45,29.42,3.82,42.42,4.32h.03c88.57,3.52,124.2-32.28,124.2-32.28v205.58S0,291.34,0,291.34V89.27s42.54,13.69,94.93,23.9c15.27,2.97,31.42,5.65,47.57,7.6,6.65.8,13.35,1.26,20.05,1.47,9.6.3,19.2.05,28.68-.52,13.22-.8,26.17-2.33,38.5-4.03,35.37-4.92,65.6-11.45,81.92-8,7.48,1.58,14.73,2.93,21.7,4.03,15.33,2.45,29.43,3.82,42.43,4.32h.02c88.58,3.53,124.21-32.27,124.21-32.27l3.06-2.56s35.64,35.8,124.21,32.28h.03c13-.5,27.1-1.88,42.42-4.33,6.98-1.1,14.23-2.45,21.7-4.02,16.33-3.45,46.55,3.07,81.93,8,12.32,1.7,25.27,3.22,38.5,4.02,9.47.57,19.07.83,28.67.53,6.7-.21,13.4-.68,20.05-1.48,16.15-1.95,32.3-4.62,47.58-7.6,52.39-10.2,94.92-23.9,94.92-23.9"/>
</svg>
