<?xml version="1.0" encoding="UTF-8"?>
<svg id="Layer_1" data-name="Layer 1" xmlns="http://www.w3.org/2000/svg" viewBox="0 0 347.1 266.2">
  <defs>
    <style>
      .cls-1 {
        fill: #3f70b6;
        stroke-width: 0px;
      }
    </style>
  </defs>
  <g id="Layer_2">
    <path class="cls-1" d="M18.47,207.8c-7.52-10.75-12.72-22.62-15.65-34.92h0C.7,163.95-.23,150.1.05,140.95H.05c.77-25.35,10.8-50.5,30.13-69.82l40.85-40.88C90.52,10.75,116.45,0,144,0s53.48,10.75,72.98,30.25c20.08,20.08,30.12,46.4,30.18,72.78h0c.03,18.6-4.9,41.85-14.77,58.28h0c-4.25,7-9.37,13.6-15.4,19.62l-20.42,20.45c-6.45,6.45-16.93,6.45-23.38,0-6.45-6.45-6.47-16.92,0-23.37l6.85-6.88h0l13.55-13.57c10.9-10.9,17.47-29.23,19.67-43.43h0c3.33-21.38-3.22-44.05-19.67-60.5-13.23-13.25-30.85-20.55-49.58-20.55s-36.32,7.3-49.58,20.55l-40.85,40.87c-15.1,15.12-21.87,35.52-20.27,55.32h0c.6,7.87,2.55,20.28,5.82,27.61h0c3.4,7.63,8.2,14.75,14.45,21,9.05,9.05,19.07,15.09,31.32,18.14h0c4.27,1.07,9.88,2.06,14.36,2.31,9.1.5,16.1,8.3,15.57,17.43-.48,8.8-7.77,15.63-16.48,15.63-.33,0-.62-.03-.92-.05-25.37-1.4-49.25-12.08-67.25-30.08-4.38-4.37-8.3-9.07-11.7-14"/>
    <path class="cls-1" d="M101.8,182.53c-1.37-7.3-2-19.54-1.82-26.94h0c.62-25.57,10.68-51,30.15-70.48l20.42-20.45c6.45-6.45,16.93-6.45,23.38,0,6.47,6.45,6.47,16.93.02,23.38l-20.45,20.45c-10.85,10.85-17.4,24.42-19.62,38.57h0c-1.45,9.08-1.1,23.19,1.02,32.17h0c2.85,12.12,8.98,23.63,18.38,33.1h0c.05.08.15.18.22.25,13.25,13.25,30.88,20.55,49.6,20.55s36.35-7.3,49.58-20.55l4.23-4.23.64-.64,35.98-36.01c.92-.92,1.85-1.87,2.68-2.85h0c12.38-13.8,18.3-36.08,17.8-53.51h0c-.48-17.28-7.32-34.43-20.48-47.58-12.23-12.22-28.42-19.5-45.68-20.45-9.1-.5-16.1-8.3-15.57-17.42.5-9.13,8.33-16.1,17.4-15.58,25.37,1.4,49.25,12.08,67.25,30.08,20.1,20.1,30.15,46.52,30.18,72.95h0c0,16.45-3.87,37.56-11.62,52.48h0c-4.75,9.1-10.92,17.62-18.55,25.25l-17.08,17.11-.52.49h0l-23.25,23.27c-19.5,19.5-45.42,30.25-72.98,30.25s-53.48-10.75-72.98-30.25c-6.03-6.03-11.15-12.6-15.35-19.6h0c-6.4-10.55-10.7-22.02-12.98-33.82"/>
  </g>
</svg>
