<?xml version="1.0" encoding="UTF-8"?>
<svg id="Layer_1" data-name="Layer 1" xmlns="http://www.w3.org/2000/svg" viewBox="0 0 1502.52 295.24">
  <defs>
    <style>
      .cls-1 {
        fill: none;
        stroke: #fff;
        stroke-miterlimit: 10;
        stroke-width: 4px;
      }
    </style>
  </defs>
  <path class="cls-1" d="M1501.71,27.49s-32.92,14.55-76.5,27.4l-33.25,8.83c-10.72,2.52-21.73,4.72-32.75,6.47-10.75,1.7-22.2,1.33-33.93-.5-13.12-2.31-24.07-5.28-33.9-8.52-28.4-9.38-56.5-23.35-79.38-33.1-15.89-6.66-24-9.78-33.9-11.1-3.52-.4-6.6-.33-9.17.4-21.83,6.1-40.95,9.88-57.68,11.93-14.33,1.26-11.94,1.81-33.1,2-60.15-.65-76.43-27.44-76.43-27.44l-.02-.03s-16.3,26.82-76.45,27.47c-21.16-.19-18.77-.74-33.1-2-16.73-2.05-35.85-5.83-57.68-11.93-2.57-.72-5.65-.8-9.17-.4-9.9,1.32-18.01,4.44-33.9,11.1-22.88,9.75-50.98,23.72-79.38,33.1-9.83,3.25-20.78,6.21-33.9,8.52-11.73,1.83-23.18,2.2-33.93.5-11.02-1.75-22.02-3.95-32.75-6.47l-33.25-8.83c-43.57-12.85-76.5-27.4-76.5-27.4h0s-32.92,14.55-76.49,27.4l-33.25,8.83c-10.72,2.52-21.73,4.72-32.75,6.47-10.75,1.7-22.2,1.33-33.93-.5-13.12-2.31-24.07-5.28-33.9-8.52-28.4-9.38-56.5-23.35-79.38-33.1-15.89-6.66-24-9.78-33.9-11.1-3.52-.4-6.6-.33-9.17.4-21.83,6.1-40.95,9.88-57.68,11.93-14.33,1.26-11.94,1.81-33.1,2C18.01,30.64,1.71,3.81,1.71,3.81"/>
</svg>